<svg width="351" height="206" viewBox="0 0 351 206" fill="none" xmlns="http://www.w3.org/2000/svg">
<path d="M329.977 187.541H62.0723V13.3231L329.977 2.15045V187.541Z" fill="white"/>
<path d="M331.395 188.772H60.6543V12.1474L331.395 0.858948V188.778V188.772ZM63.4904 186.305H328.566V3.44804L63.4834 14.4989V186.305H63.4904Z" fill="black"/>
<path d="M350.522 188.431H329.975V1.08435L350.522 20.8528V188.431Z" fill="black"/>
<path d="M351 188.851H329.498V0L351 20.6944V188.851ZM330.453 188.017H350.039V21.0173L330.453 2.16874V188.017Z" fill="black"/>
<path d="M328.445 22.7971L60.7832 32.2482L60.8988 34.7134L328.56 25.2623L328.445 22.7971Z" fill="black"/>
<path d="M97.2279 32.0986H95.6694V29.4547C95.6694 25.5254 93.9144 21.7971 90.8537 19.2263C88.2142 17.0088 84.8376 15.8331 81.3486 15.9549L62.0366 16.5519L61.9805 15.1934L81.2925 14.5964C85.2026 14.4806 88.9934 15.7721 91.9418 18.2516C95.3044 21.0782 97.2279 25.1599 97.2279 29.4547V32.0986Z" fill="black"/>
<path d="M92.0749 62.6072C88.9089 62.6072 85.9465 61.6446 83.8826 59.9328C82.2399 58.5682 81.3203 56.8198 81.2992 55.0105C81.2501 50.8131 85.8341 47.3772 91.7309 47.1823L293.802 40.5481C297.164 40.4385 300.33 41.4132 302.506 43.2164C304.149 44.581 305.069 46.3294 305.09 48.1387C305.139 52.3361 300.555 55.772 294.658 55.9669L92.5874 62.6011C92.4119 62.6011 92.2434 62.6072 92.0749 62.6072ZM294.321 41.9127C294.167 41.9127 294.019 41.9127 293.865 41.9188L91.7941 48.553C86.7538 48.7175 82.8366 51.5442 82.8787 54.9922C82.8928 56.4482 83.6158 57.8128 84.9707 58.9337C86.838 60.4872 89.5969 61.3218 92.5312 61.2243L294.602 54.5901C299.642 54.4257 303.559 51.599 303.517 48.1509C303.503 46.6949 302.78 45.3303 301.425 44.2094C299.656 42.7413 297.087 41.9127 294.321 41.9127Z" fill="black"/>
<path d="M90.5513 50.8375C89.6036 50.868 88.7191 51.264 88.0732 51.9341C87.4274 52.6103 87.0904 53.4875 87.1255 54.4074C87.1606 55.3273 87.5608 56.1802 88.2558 56.8016C88.9507 57.429 89.8563 57.7519 90.811 57.7215C91.5341 57.6971 92.2221 57.4656 92.7907 57.0574L95.4232 59.4272C95.4583 59.4577 95.5074 59.4577 95.5425 59.4272L96.5464 58.3794C96.5464 58.3794 96.5674 58.3489 96.5674 58.3307C96.5674 58.3307 96.5604 58.2819 96.5394 58.2697L93.8507 55.8451C94.0613 55.4491 94.1877 55.0105 94.2228 54.5536C94.307 53.4997 93.8998 52.4763 93.0996 51.7635C92.4046 51.136 91.499 50.8071 90.5443 50.8436L90.5513 50.8375ZM92.9943 51.8732C93.7594 52.5616 94.1455 53.5302 94.0683 54.5414C94.0402 54.9131 93.942 55.2725 93.7945 55.6075C93.7735 55.6502 93.7524 55.6928 93.7314 55.7355C93.7173 55.7598 93.7033 55.7842 93.6963 55.8086C93.6822 55.8329 93.6682 55.8573 93.6541 55.8817L93.7173 55.9365L93.7805 55.9913L96.3779 58.3307L95.4793 59.2627L92.9241 56.9661L92.8609 56.9112L92.8047 56.8564C92.8047 56.8564 92.7626 56.8929 92.7415 56.9051C92.7205 56.9234 92.6994 56.9356 92.6784 56.9539C92.1378 57.3316 91.492 57.5448 90.811 57.5752C89.9055 57.6057 89.042 57.295 88.3751 56.698C87.7082 56.101 87.3291 55.2908 87.294 54.4135C87.294 54.2856 87.294 54.1577 87.301 54.0297C87.3572 53.2926 87.6731 52.6042 88.1996 52.0559C88.8174 51.4102 89.6527 51.0386 90.5653 51.0081C91.4709 50.9776 92.3414 51.2883 93.0013 51.8853L92.9943 51.8732Z" fill="black"/>
<path d="M90.5516 50.9959C89.646 51.0264 88.8036 51.398 88.1858 52.0437C87.6593 52.592 87.3434 53.2804 87.2873 54.0175C87.2802 54.1455 87.2732 54.2734 87.2803 54.4013C87.3154 55.2786 87.6944 56.0949 88.3613 56.6858C89.0282 57.2828 89.8917 57.5935 90.7973 57.5631C91.4782 57.5387 92.1241 57.3255 92.6646 56.9417C92.6857 56.9234 92.7067 56.9112 92.7278 56.8929C92.7488 56.8808 92.7699 56.8625 92.7909 56.8442L92.8471 56.899L92.9103 56.9539L95.4656 59.2505L96.3641 58.3185L93.7667 55.9791L93.7035 55.9243L93.6404 55.8695C93.6404 55.8695 93.6684 55.8208 93.6825 55.7964C93.6965 55.772 93.7106 55.7477 93.7176 55.7233C93.7387 55.6806 93.7597 55.638 93.7808 55.5954C93.9282 55.2603 94.0265 54.907 94.0545 54.5293C94.1388 53.518 93.7457 52.5494 92.9805 51.861C92.3206 51.264 91.4501 50.9533 90.5445 50.9837L90.5516 50.9959ZM92.3347 52.5555C92.812 52.988 93.0858 53.5667 93.1069 54.2003C93.1069 54.2917 93.1069 54.3831 93.1069 54.4744C93.0647 55.0044 92.8401 55.4979 92.461 55.8939C92.0188 56.3569 91.415 56.6188 90.7622 56.6432C90.1093 56.6675 89.4916 56.4421 89.0142 56.0157C88.5368 55.5832 88.263 55.0044 88.242 54.3709C88.242 54.2795 88.242 54.1881 88.242 54.0967C88.2841 53.5667 88.5088 53.0733 88.8878 52.6834C89.3301 52.2204 89.9338 51.9524 90.5867 51.9341C91.2395 51.9097 91.8573 52.1351 92.3347 52.5616V52.5555Z" fill="black"/>
<path d="M90.5863 51.9219C89.9334 51.9463 89.3367 52.2082 88.8874 52.6712C88.5084 53.0672 88.2907 53.5545 88.2416 54.0845C88.2346 54.1759 88.2346 54.2673 88.2416 54.3587C88.2627 54.9861 88.5364 55.571 89.0138 56.0035C89.4912 56.4299 90.1089 56.6553 90.7618 56.631C91.4146 56.6066 92.0184 56.3386 92.4606 55.8817C92.8397 55.4857 93.0643 54.9922 93.1065 54.4622C93.1135 54.3709 93.1135 54.2795 93.1065 54.1881C93.0854 53.5606 92.8046 52.9758 92.3343 52.5433C91.8569 52.1168 91.2391 51.8914 90.5863 51.9158V51.9219ZM92.2219 52.6651C92.6642 53.0672 92.9239 53.6094 92.945 54.2003C92.9661 54.7912 92.7484 55.3517 92.3413 55.7781C91.9271 56.2106 91.3655 56.4604 90.7548 56.4787C90.151 56.503 89.5684 56.2898 89.1261 55.8938C88.6839 55.4918 88.4241 54.9496 88.4031 54.3587C88.4031 54.2734 88.4031 54.1881 88.4031 54.1028C88.4452 53.6094 88.6488 53.1464 89.0068 52.7808C89.421 52.3483 89.9826 52.0985 90.5933 52.0803C91.197 52.062 91.7797 52.2691 92.2219 52.6651Z" fill="black"/>
<path d="M86.0373 100.006V127.852C68.2276 129.521 53.6049 137.441 41.9237 150.898C36.0128 144.818 30.1722 138.836 24.2754 132.768C40.4986 113.902 60.8987 102.68 86.0444 99.9997L86.0373 100.006Z" fill="white"/>
<path d="M41.973 152.61L40.9832 151.586C38.0699 148.589 35.1706 145.616 32.2784 142.643C29.3019 139.585 26.3254 136.533 23.3349 133.457L22.7031 132.805L23.2928 132.123C39.9513 112.75 61.0113 101.584 85.8901 98.9336L87.2661 98.7874V128.809L86.1709 128.912C69.1053 130.508 54.5529 138.123 42.9067 151.538L41.98 152.604L41.973 152.61ZM25.8411 132.732C28.614 135.589 31.3798 138.422 34.1457 141.261C36.715 143.898 39.2844 146.536 41.8677 149.192C53.5279 136.223 67.9611 128.729 84.8021 126.896V101.218C61.5027 104.02 41.6712 114.62 25.8411 132.726V132.732Z" fill="black"/>
<path d="M38.9259 154.687C29.6946 167.474 25.1387 182.095 25.3773 198.44L1.22153 198.659C1.13729 175.595 7.51847 154.888 21.3198 136.558C27.1113 142.522 32.9168 148.504 38.9189 154.687H38.9259Z" fill="white"/>
<path d="M0.000927708 199.744V198.665C-0.0903323 174.736 6.55059 154.23 20.3028 135.973L21.2083 134.773L26.1715 139.884C30.6783 144.526 35.2203 149.198 39.8745 153.999L40.4572 154.596L39.9798 155.26C30.8749 167.864 26.3821 182.388 26.6208 198.428L26.6348 199.5L0.000927708 199.744ZM21.4611 138.355C8.78997 155.674 2.56323 175.071 2.45793 197.575L24.1427 197.38C24.1146 181.626 28.5723 167.304 37.4105 154.785C32.9598 150.198 28.6074 145.714 24.2901 141.267L21.4611 138.355Z" fill="black"/>
<path d="M184.837 196.947L155.591 197.228C155.142 192.518 154.91 187.858 154.194 183.271C152.531 172.482 148.368 162.741 141.916 154.157C140.604 152.409 140.59 151.355 142.141 149.625C147.729 143.411 153.162 136.99 158.694 130.575C159.052 130.155 159.27 129.619 159.663 128.943C176.883 148.327 185.005 170.941 184.83 196.953L184.837 196.947Z" fill="white"/>
<path d="M154.461 198.312L154.363 197.319C154.222 195.863 154.103 194.407 153.984 192.957C153.724 189.808 153.457 186.548 152.973 183.417C151.351 172.908 147.286 163.265 140.884 154.748C139.256 152.58 139.34 151.014 141.172 148.967C145.546 144.099 149.912 139.013 154.138 134.09C155.324 132.708 156.518 131.319 157.711 129.936C157.873 129.747 158.013 129.473 158.203 129.132C158.315 128.924 158.427 128.705 158.568 128.461L159.445 126.951L160.631 128.291C177.922 147.749 186.233 170.216 186.051 196.966V198.02L154.447 198.318L154.461 198.312ZM159.887 130.959C159.824 131.044 159.761 131.13 159.691 131.215C158.497 132.604 157.304 133.993 156.118 135.376C151.885 140.31 147.504 145.409 143.117 150.289C141.923 151.617 141.895 152.171 142.948 153.579C149.547 162.363 153.738 172.311 155.416 183.137C155.914 186.341 156.181 189.631 156.441 192.811C156.532 193.92 156.623 195.034 156.721 196.149L183.608 195.893C183.566 170.721 175.795 149.454 159.887 130.959Z" fill="black"/>
<path d="M152.448 121.937C146.446 127.091 140.606 132.098 134.8 137.063C133.185 138.428 131.55 140.688 129.893 140.804C128.243 140.938 126.551 138.866 124.867 137.806C115.2 131.605 104.698 128.206 93.3048 127.852C92.9257 127.834 92.5606 127.834 92.1745 127.803C91.5498 127.767 90.925 127.7 90.1738 127.621V99.689C113.635 98.9823 134.288 106.408 152.441 121.943L152.448 121.937Z" fill="white"/>
<path d="M129.717 141.888C128.172 141.888 126.881 140.828 125.624 139.805C125.105 139.378 124.613 138.976 124.143 138.684C114.575 132.549 104.185 129.272 93.2548 128.93L92.8898 128.918C92.609 128.912 92.3352 128.9 92.0474 128.876C91.4296 128.845 90.7838 128.772 90.0116 128.687L88.9375 128.565V98.6595L90.1239 98.6229C113.718 97.9162 134.968 105.501 153.297 121.181L154.188 121.943L153.297 122.704C147.295 127.858 141.454 132.866 135.642 137.837C135.206 138.202 134.764 138.641 134.301 139.11C132.995 140.414 131.647 141.76 129.976 141.882C129.885 141.888 129.794 141.894 129.703 141.894L129.717 141.888ZM91.4015 126.67C91.6964 126.701 91.9701 126.719 92.2509 126.737C92.5317 126.762 92.7494 126.768 92.981 126.774L93.3671 126.786C104.782 127.139 115.635 130.563 125.596 136.948C126.186 137.319 126.761 137.788 127.309 138.239C128.109 138.891 129.218 139.786 129.773 139.744C130.461 139.695 131.619 138.544 132.462 137.697C132.939 137.222 133.437 136.722 133.936 136.302C139.446 131.587 144.999 126.835 150.685 121.949C133.149 107.261 113.746 100.31 91.4015 100.731V126.676V126.67Z" fill="black"/>
<path d="M126.452 144.252C123.524 146.762 120.667 149.272 117.726 151.641C117.389 151.909 116.392 151.641 115.901 151.325C109.281 147.03 102.106 144.441 94.3071 143.777C81.3763 142.68 69.6599 146.055 59.4739 154.316C46.0095 165.245 39.6845 179.664 39.4949 197.057C39.4949 197.307 39.502 197.563 39.4949 197.806C39.4949 197.934 39.4528 198.056 39.3896 198.379L29.5125 198.47C27.8417 183.764 34.609 158.678 55.3672 143.563C77.761 127.255 106.36 128.589 126.445 144.24L126.452 144.252Z" fill="black"/>
<path d="M162.465 119.208C162.03 119.579 161.581 119.914 161.16 120.286C137.839 140.067 115.221 159.238 93.2553 177.904C92.1602 178.848 91.1142 179.25 89.6751 179.201C83.3781 178.952 78.2325 183.112 76.7232 189.46C75.3683 195.089 78.3027 201.236 83.68 203.783C91.1563 207.34 100.809 202.333 101.398 192.244C101.469 191.233 101.918 190.051 102.564 189.296C119.798 169.284 137.481 148.827 155.565 127.907C157.98 125.111 160.381 122.278 162.795 119.47C162.676 119.384 162.571 119.299 162.465 119.22V119.208ZM88.9099 195.662C86.9303 195.662 85.2033 193.84 85.2384 191.806C85.2525 189.887 87.0285 188.065 88.8888 188.016C90.8895 187.968 92.6796 189.753 92.6796 191.775C92.6656 193.828 90.8895 195.668 88.9029 195.668L88.9099 195.662Z" fill="white"/>
<path d="M88.7485 206C86.811 206 84.8805 205.574 83.0904 204.721C77.3059 201.985 74.0556 195.327 75.5228 189.241C77.1725 182.321 82.8798 177.849 89.7383 178.129C90.7983 178.166 91.5214 177.898 92.3989 177.142C109.31 162.771 126.6 148.102 144.305 133.091L160.31 119.518C160.542 119.317 160.802 119.104 161.061 118.891C161.244 118.745 161.427 118.592 161.609 118.44L162.444 117.727L163.301 118.422C163.385 118.489 163.462 118.556 163.561 118.623L164.494 119.269L163.778 120.103C162.795 121.248 161.813 122.394 160.837 123.545C159.405 125.22 157.98 126.89 156.548 128.547L151.156 134.785C134.652 153.877 119.061 171.915 103.547 189.935C103.062 190.508 102.683 191.483 102.627 192.305C102.311 197.751 99.3557 202.351 94.7295 204.605C92.8201 205.531 90.7843 206 88.7555 206H88.7485ZM89.1486 180.261C83.7502 180.261 79.2785 183.99 77.9236 189.68C76.6671 194.882 79.3978 200.535 84.2627 202.844C87.176 204.227 90.5456 204.191 93.5221 202.741C97.4041 200.846 99.8892 196.905 100.17 192.189C100.254 190.947 100.809 189.564 101.574 188.662C117.095 170.636 132.687 152.598 149.191 133.506L154.245 127.657L146.018 134.633C128.313 149.643 111.023 164.307 94.1188 178.677C92.7639 179.847 91.388 180.347 89.626 180.28C89.4645 180.274 89.3101 180.268 89.1486 180.268V180.261ZM88.9099 196.734C87.7446 196.734 86.6004 196.295 85.6948 195.491C84.5997 194.523 83.9889 193.176 84.01 191.787C84.031 189.326 86.3406 187.011 88.8538 186.944C90.0331 186.914 91.2195 187.334 92.1602 188.132C93.2764 189.076 93.9152 190.405 93.9152 191.769C93.8941 194.419 91.5565 196.734 88.9099 196.734ZM88.9731 189.083C88.9731 189.083 88.945 189.083 88.924 189.083C87.8289 189.113 86.481 190.38 86.467 191.812C86.4529 192.622 86.818 193.438 87.4428 193.987C87.885 194.377 88.4045 194.59 88.9099 194.59C90.2086 194.59 91.4442 193.213 91.4512 191.763C91.4512 190.989 91.0721 190.204 90.4403 189.667C89.991 189.29 89.4715 189.083 88.9661 189.083H88.9731Z" fill="black"/>
<path d="M150.748 197.252L138.948 197.362C139.214 185.33 136.09 174.401 129.365 164.447C132.054 161.346 134.658 158.33 137.305 155.284C146.319 165.732 151.794 182.972 150.748 197.252Z" fill="black"/>
<path d="M88.8881 188.016C90.8818 187.962 92.6789 189.747 92.6719 191.775C92.6648 193.828 90.8818 195.668 88.9091 195.668C86.9295 195.668 85.2096 193.853 85.2307 191.8C85.2517 189.893 87.0208 188.071 88.8881 188.016Z" fill="black"/>
</svg>
