<svg width="351" height="204" viewBox="0 0 351 204" fill="none" xmlns="http://www.w3.org/2000/svg">
<path d="M135.318 140.234H323.567V1.32808L135.318 14.9622V140.234Z" fill="white"/>
<path d="M324.528 141.069H134.363V14.1946L135.241 14.1337L324.528 0.420349V141.069ZM136.28 139.399H322.605V2.23579L136.28 15.7298V139.399Z" fill="black"/>
<path d="M350.039 138.528L323.566 140.234V1.32808L350.039 12.4035V138.528Z" fill="black"/>
<path d="M322.605 141.13V0L351.001 11.8796V139.302L322.605 141.13ZM324.529 2.65616V139.332L349.078 137.755V12.9335L324.529 2.65616Z" fill="black"/>
<path d="M249.048 140.124H211.793V189.976H249.048V140.124Z" fill="white"/>
<path d="M250.011 190.811H210.832V139.29H250.011V190.811ZM212.756 189.141H248.094V140.959H212.756V189.141Z" fill="black"/>
<path d="M269.52 140.124H249.176V189.976H269.52V140.124Z" fill="black"/>
<path d="M270.229 190.597H248.467V139.509H270.229V190.597ZM249.885 189.367H268.811V140.746H249.885V189.367Z" fill="black"/>
<path d="M248.811 190.189L261.798 202.763H290.537L270.748 190.14L248.811 190.189Z" fill="black"/>
<path d="M292.706 203.379H261.481L247.217 189.58L270.972 189.525L292.699 203.385L292.706 203.379ZM262.12 202.148H288.375L270.516 190.762L250.397 190.811L262.12 202.148Z" fill="black"/>
<path d="M212.693 189.519L196.027 203.366L261.798 202.763L249.176 189.982L212.693 189.519Z" fill="white"/>
<path d="M194.236 204L212.411 188.898L249.505 189.367L263.327 203.366L194.236 204ZM212.973 190.14L197.817 202.733L260.273 202.16L248.852 190.591L212.98 190.134L212.973 190.14Z" fill="black"/>
<path d="M147.062 131.571H311.829V9.99104L147.062 21.9255V131.571Z" fill="white"/>
<path d="M312.665 132.302H146.221V21.2553L312.665 9.19907V132.302ZM147.898 130.84H310.98V10.783L147.898 22.5956V130.834V130.84Z" fill="black"/>
<path d="M312.636 18.8793L146.939 29.1866L147.058 30.6267L312.755 20.3194L312.636 18.8793Z" fill="black"/>
<path d="M169.217 29.0959H168.375V27.8653C168.375 26.4092 167.652 25.0385 166.339 24.015C164.605 22.6565 162.071 22.0229 159.396 22.2666L147.61 23.3449L147.525 22.62L159.312 21.5417C162.225 21.2736 164.991 21.9803 166.908 23.4729C168.396 24.6425 169.217 26.2021 169.217 27.8653V29.0959Z" fill="black"/>
<path d="M165.153 49.6262C163.194 49.6262 161.341 49.0719 160.099 48.1093C159.179 47.3904 158.674 46.5071 158.624 45.5567C158.512 43.2173 161.271 41.2252 164.907 41.0242L289.821 34.0914C291.976 33.9695 294.089 34.53 295.451 35.5961C296.371 36.315 296.876 37.1984 296.925 38.1487C297.038 40.4881 294.279 42.4802 290.643 42.6812L165.729 49.6141C165.539 49.6262 165.343 49.6323 165.153 49.6323V49.6262ZM290.404 34.8773C290.228 34.8773 290.053 34.8773 289.877 34.8894L164.963 41.8223C161.889 41.9928 159.46 43.6499 159.544 45.5202C159.579 46.2512 159.979 46.9335 160.709 47.5062C161.889 48.4261 163.728 48.9135 165.658 48.8038L290.572 41.871C293.647 41.7004 296.076 40.0434 295.992 38.1731C295.957 37.442 295.557 36.7597 294.826 36.1871C293.759 35.3524 292.131 34.8773 290.397 34.8773H290.404Z" fill="black"/>
<path d="M164.247 43.0955C163.658 43.1321 163.124 43.3575 162.738 43.7413C162.352 44.1251 162.162 44.6185 162.197 45.1303C162.233 45.642 162.499 46.105 162.942 46.4401C163.384 46.7751 163.952 46.9457 164.542 46.9092C164.991 46.8848 165.406 46.7447 165.757 46.5071L167.434 47.7803C167.434 47.7803 167.491 47.7925 167.505 47.7803L168.108 47.1833C168.108 47.1833 168.122 47.165 168.122 47.1589C168.122 47.1589 168.115 47.1346 168.108 47.1224L166.402 45.8187C166.522 45.5933 166.592 45.3496 166.606 45.0937C166.641 44.5028 166.367 43.9484 165.855 43.5585C165.413 43.2234 164.844 43.0529 164.254 43.0894L164.247 43.0955ZM165.778 43.6316C166.262 43.9971 166.522 44.5332 166.494 45.0937C166.48 45.3008 166.431 45.5019 166.346 45.6907C166.332 45.7151 166.325 45.7395 166.311 45.7638C166.304 45.776 166.297 45.7943 166.29 45.8065C166.283 45.8187 166.276 45.8309 166.269 45.8491L166.311 45.8796L166.353 45.9101L168.01 47.165L167.477 47.695L165.848 46.4583L165.806 46.4279L165.771 46.3974C165.771 46.3974 165.743 46.4157 165.729 46.4279C165.715 46.4401 165.7 46.4462 165.686 46.4583C165.356 46.6777 164.963 46.8056 164.542 46.83C163.981 46.8604 163.44 46.702 163.019 46.3791C162.598 46.0563 162.345 45.6115 162.31 45.1242C162.31 45.0511 162.31 44.9841 162.31 44.911C162.331 44.5028 162.513 44.1129 162.829 43.8022C163.201 43.4367 163.714 43.2173 164.268 43.1808C164.823 43.1442 165.371 43.3087 165.792 43.6316H165.778Z" fill="black"/>
<path d="M164.253 43.1808C163.692 43.2113 163.179 43.4306 162.814 43.8022C162.498 44.1129 162.316 44.5028 162.295 44.9109C162.295 44.9841 162.295 45.0511 162.295 45.1242C162.33 45.6115 162.583 46.0563 163.004 46.3791C163.425 46.702 163.966 46.8604 164.527 46.83C164.948 46.8056 165.342 46.6777 165.672 46.4583C165.686 46.4462 165.7 46.4401 165.714 46.4279C165.728 46.4218 165.742 46.4096 165.756 46.3974L165.791 46.4279L165.833 46.4583L167.462 47.695L167.995 47.165L166.338 45.9101L166.296 45.8796L166.254 45.8491C166.254 45.8491 166.268 45.8248 166.275 45.8065C166.282 45.7943 166.289 45.7821 166.296 45.7638C166.31 45.7395 166.324 45.7151 166.331 45.6907C166.416 45.5019 166.472 45.3008 166.479 45.0937C166.507 44.5332 166.247 43.9971 165.763 43.6316C165.342 43.3087 164.801 43.1503 164.239 43.1808H164.253ZM165.384 44.0154C165.686 44.2469 165.868 44.5637 165.896 44.917C165.896 44.9658 165.896 45.0206 165.896 45.0693C165.882 45.3618 165.749 45.642 165.524 45.8674C165.257 46.1294 164.892 46.2878 164.485 46.3121C164.085 46.3365 163.699 46.2207 163.39 45.9892C163.088 45.7577 162.906 45.441 162.878 45.0876C162.878 45.0389 162.878 44.9841 162.878 44.9353C162.892 44.6368 163.025 44.3627 163.25 44.1373C163.516 43.8753 163.881 43.7169 164.289 43.6925C164.689 43.6682 165.082 43.7839 165.384 44.0154Z" fill="black"/>
<path d="M164.296 43.6925C163.896 43.7169 163.524 43.8753 163.257 44.1372C163.032 44.3627 162.906 44.6368 162.885 44.9353C162.885 44.9841 162.885 45.0389 162.885 45.0876C162.913 45.4349 163.095 45.7577 163.397 45.9892C163.699 46.2207 164.092 46.3365 164.492 46.3121C164.892 46.2878 165.265 46.1294 165.531 45.8674C165.756 45.642 165.889 45.3618 165.903 45.0693C165.903 45.0206 165.903 44.9658 165.903 44.917C165.875 44.5698 165.693 44.2469 165.391 44.0154C165.089 43.7839 164.696 43.6682 164.296 43.6925ZM165.321 44.0763C165.602 44.2895 165.77 44.5881 165.798 44.917C165.826 45.246 165.7 45.5567 165.454 45.8065C165.208 46.0502 164.864 46.2025 164.485 46.2207C164.113 46.2451 163.748 46.1355 163.467 45.9222C163.187 45.709 163.018 45.4105 162.99 45.0815C162.99 45.0328 162.99 44.984 162.99 44.9414C163.004 44.6673 163.123 44.4053 163.334 44.1982C163.58 43.9545 163.924 43.8022 164.303 43.7839C164.675 43.7656 165.04 43.8692 165.321 44.0824V44.0763Z" fill="black"/>
<path d="M216.868 177.865C216.749 177.658 216.63 177.445 216.552 177.237C216.061 176.196 215.584 175.154 215.113 174.106C215.577 175.16 216.054 176.208 216.545 177.244C216.637 177.445 216.756 177.652 216.875 177.865H216.868Z" fill="black"/>
<path d="M121.727 90.0595C122.204 91.4729 122.667 92.8801 123.131 94.2935C122.681 92.8862 122.218 91.4789 121.741 90.0656H121.727V90.0595Z" fill="black"/>
<path d="M141.053 90.5712C141.319 90.7845 141.572 91.022 141.811 91.2901C141.579 91.0099 141.334 90.7723 141.053 90.5712Z" fill="black"/>
<path d="M159.549 113.947C159.907 114.014 160.272 114.087 160.665 114.154C160.7 114.154 160.735 114.178 160.763 114.196C160.735 114.166 160.707 114.142 160.658 114.142C160.279 114.081 159.907 114.02 159.549 113.953V113.947Z" fill="black"/>
<path d="M180.448 113.886C180.448 113.886 180.462 113.886 180.448 113.898C181.08 113.855 181.726 113.819 182.337 113.788C181.712 113.819 181.087 113.849 180.441 113.886H180.448Z" fill="black"/>
<path d="M191.68 113.276C192.48 113.222 193.259 113.149 194.045 113.063C194.221 113.039 194.403 113.027 194.572 113.008C194.41 113.015 194.242 113.033 194.059 113.051C193.273 113.136 192.48 113.216 191.68 113.276Z" fill="black"/>
<path d="M195.682 112.947C195.682 112.947 195.716 112.947 195.73 112.947H195.737C195.737 112.947 195.702 112.941 195.682 112.947Z" fill="black"/>
<path d="M234.656 187.825C235.141 188.234 235.59 188.66 235.99 189.099C235.59 188.648 235.155 188.228 234.656 187.825Z" fill="black"/>
<path d="M59.3188 203.366C60.1963 192.821 64.2187 182.111 70.7543 171.34C74.4328 167.843 77.0162 165.072 80.0629 162.549C90.7333 153.752 105.595 150.048 119.333 152.826C128.922 154.764 135.963 158.918 141.481 164.121C153.962 175.873 158.729 189.196 158.954 203.36H211.014C210.937 202.964 210.93 202.556 211.014 202.16C212.867 193.394 209.498 186.918 195.268 184.329C192.636 183.847 190.473 181.033 189.54 178.968C185.658 170.347 182.162 161.642 178.911 152.887C178.09 150.688 178.455 148.221 178.729 145.875C178.89 144.401 179.894 142.927 180.512 141.459C186.648 126.783 186.591 126.606 171.948 114.525C168.206 116.816 164.499 119.119 160.723 121.367C155.738 124.346 153.12 124.236 148.031 121.946C141.123 118.863 133.562 116.365 126.823 113.161C123.91 111.778 121.439 109.481 120.33 107.215C118.139 102.78 116.974 98.095 115.57 93.4711C114.931 91.3632 113.71 90.3336 109.849 90.6139C95.6683 91.6678 98.2868 89.7853 95.4998 98.9905C95.1208 100.233 94.6855 101.488 94.5732 102.725C93.9484 109.609 90.1576 114.927 79.4662 118.278C74.3626 119.874 70.3612 123.201 66.0229 125.851C60.9825 128.939 58.6238 129.189 53.4641 126.728C49.582 124.876 45.7421 122.975 41.2914 120.819C37.4304 125.485 33.5132 129.682 30.5157 134.118C29.3925 135.781 29.4487 138.291 30.5719 139.893C38.0552 150.548 38.4904 161.398 31.7582 172.912C29.4346 176.902 29.1468 181.337 28.2693 185.577C27.4409 189.501 25.0752 192.76 19.1924 194.423C12.0461 196.458 8.10786 199.431 7.16016 203.354H59.3188V203.366Z" fill="white"/>
<path d="M235.998 189.099C236.511 189.696 236.96 190.323 237.311 190.969C236.967 190.311 236.525 189.684 235.998 189.099Z" fill="white"/>
<path d="M234.656 187.825C235.141 188.234 235.59 188.66 235.99 189.099C235.59 188.648 235.155 188.228 234.656 187.825Z" fill="white"/>
<path d="M225.775 183.829C227.151 184.176 228.401 184.566 229.552 185.005C228.422 184.566 227.165 184.182 225.775 183.829Z" fill="white"/>
<path d="M215.113 174.106C215.577 175.16 216.047 176.208 216.545 177.244C216.637 177.445 216.756 177.652 216.875 177.865C216.756 177.658 216.637 177.445 216.559 177.237C216.068 176.196 215.591 175.154 215.12 174.106H215.113Z" fill="white"/>
<path d="M195.682 112.948C195.682 112.948 195.717 112.948 195.731 112.948C195.822 112.948 195.927 112.941 196.012 112.948C195.927 112.948 195.843 112.941 195.745 112.948C195.731 112.948 195.71 112.948 195.689 112.948H195.682Z" fill="white"/>
<path d="M191.68 113.276C192.48 113.222 193.259 113.149 194.045 113.063C194.221 113.039 194.403 113.027 194.572 113.008C194.41 113.015 194.242 113.033 194.059 113.051C193.273 113.136 192.48 113.216 191.68 113.276Z" fill="white"/>
<path d="M180.448 113.886C180.448 113.886 180.462 113.886 180.448 113.898C181.08 113.855 181.726 113.819 182.337 113.788C181.712 113.819 181.087 113.849 180.441 113.886H180.448Z" fill="white"/>
<path d="M7.15924 203.366C8.11396 199.443 12.0452 196.47 19.1915 194.435C25.0673 192.772 27.44 189.519 28.2684 185.59C29.1389 181.344 29.4267 176.915 31.7573 172.924C38.4895 161.41 38.0472 150.56 30.5709 139.905C29.4477 138.297 29.3986 135.793 30.5148 134.13C33.5123 129.695 37.4295 125.497 41.2905 120.831C45.7412 122.987 49.5811 124.894 53.4632 126.74C58.6229 129.201 60.9886 128.951 66.0219 125.863C70.3603 123.207 74.3547 119.886 79.4652 118.29C90.1497 114.94 93.9475 109.621 94.5723 102.737C94.6846 101.5 95.1198 100.252 95.4989 99.0027C98.2788 89.7975 95.6674 91.6739 109.848 90.6261C113.709 90.3458 114.93 91.3754 115.569 93.4833C116.973 98.1072 118.138 102.792 120.329 107.227C121.438 109.493 123.902 111.79 126.822 113.173C133.561 116.377 141.122 118.875 148.03 121.958C153.126 124.248 155.745 124.358 160.722 121.379C164.499 119.131 168.205 116.828 171.947 114.538C186.597 126.618 186.654 126.795 180.511 141.471C179.893 142.939 178.882 144.413 178.728 145.887C178.447 148.233 178.089 150.7 178.911 152.899C182.161 161.654 185.65 170.359 189.539 178.98C190.473 181.045 192.628 183.86 195.267 184.341C209.504 186.936 212.866 193.406 211.013 202.172C210.929 202.568 210.936 202.983 211.013 203.373H245.608C245.537 202.617 245.425 201.849 245.243 201.051C244.463 197.646 244.948 194.07 244.807 190.573C244.646 186.747 242.329 183.726 236.615 182.58C226.654 180.582 222.259 176.324 221.031 169.507C219.978 163.652 216.067 158.145 214.095 152.369C213.098 149.494 212.908 146.302 213.61 143.323C214.53 139.357 216.671 135.458 218.251 131.516C219.746 127.776 219.226 124.328 215.976 121.178C212.845 118.144 209.813 115.061 207.04 111.887C204.498 108.969 200.869 107.934 195.632 108.421C186.415 109.292 177.198 109.993 167.966 110.742C164.604 111.016 154.874 106.63 154.109 104.425C152.494 99.8495 151.062 95.2439 149.448 90.6687C147.566 85.3198 145.278 84.2537 136.657 84.6741C125.06 85.2589 113.456 85.862 101.852 86.5139C94.3968 86.9282 91.3852 88.6705 89.9321 93.4711C88.5772 97.9427 87.5312 102.445 86.2957 106.916C85.0461 111.412 76.8608 114.891 69.9321 114.94C60.1111 115.007 50.2129 115.707 40.3919 116.566C38.2508 116.749 35.7236 118.522 34.4109 119.929C30.7815 123.785 27.0329 127.69 24.6601 131.839C23.0666 134.641 22.1189 138.394 23.7054 140.868C30.3252 151.157 31.2659 161.41 24.8145 172.425C22.4839 176.403 22.7717 180.905 21.0939 185.066C20.3077 187.034 18.2789 189.671 15.8009 190.433C5.99392 193.455 0.939519 197.731 0.00585938 203.373H7.16626L7.15924 203.366ZM237.31 190.975C236.959 190.323 236.517 189.702 235.997 189.105C236.517 189.696 236.966 190.317 237.31 190.975ZM229.553 185.005C228.402 184.572 227.152 184.176 225.776 183.829C227.166 184.176 228.423 184.566 229.553 185.005ZM216.552 177.237C216.636 177.445 216.755 177.658 216.868 177.865C216.748 177.658 216.629 177.445 216.538 177.244C216.046 176.202 215.569 175.16 215.106 174.106C215.576 175.154 216.053 176.196 216.545 177.237H216.552ZM188.774 122.469C188.928 122.61 189.069 122.756 189.195 122.914C189.061 122.768 188.921 122.622 188.767 122.482C187.075 120.843 185.474 119.168 183.761 117.346C185.488 119.155 187.096 120.837 188.774 122.469ZM155.464 118.504C155.667 118.382 155.864 118.254 156.082 118.126C155.864 118.266 155.653 118.394 155.464 118.516C153.828 117.906 152.221 117.303 150.634 116.712C152.221 117.297 153.821 117.894 155.457 118.504H155.464ZM130.43 109.079C133.421 110.243 136.447 111.4 139.514 112.552C136.447 111.394 133.414 110.255 130.423 109.085C130.101 108.957 129.75 108.805 129.441 108.616C129.771 108.799 130.093 108.951 130.43 109.079Z" fill="black"/>
<path d="M55.5899 121.641C54.9861 121.355 54.3543 121.044 53.6523 120.691C54.3614 121.032 54.9932 121.349 55.5899 121.641Z" fill="black"/>
<path d="M123.123 94.2935C122.659 92.8862 122.196 91.4729 121.719 90.0595H121.733C122.21 91.479 122.673 92.8862 123.123 94.2935Z" fill="black"/>
<path d="M141.811 91.2901C141.572 91.022 141.327 90.7784 141.053 90.5712C141.334 90.7723 141.579 91.016 141.811 91.2901Z" fill="black"/>
<path d="M160.771 114.19C160.771 114.19 160.708 114.148 160.673 114.148C160.28 114.081 159.915 114.008 159.557 113.941C159.915 114.008 160.287 114.068 160.666 114.129C160.715 114.129 160.75 114.154 160.771 114.184V114.19Z" fill="black"/>
<path d="M182.351 113.788C181.741 113.825 181.095 113.861 180.463 113.898C180.47 113.892 180.463 113.886 180.463 113.886C181.109 113.849 181.733 113.819 182.358 113.788H182.351Z" fill="black"/>
<path d="M194.572 113.008C194.403 113.027 194.221 113.039 194.045 113.063C193.259 113.149 192.48 113.222 191.68 113.276C192.48 113.222 193.266 113.136 194.059 113.051C194.249 113.033 194.418 113.015 194.572 113.008Z" fill="black"/>
<path d="M196.004 112.947C195.92 112.947 195.814 112.947 195.723 112.947C195.709 112.947 195.695 112.941 195.674 112.947C195.695 112.947 195.716 112.935 195.73 112.947C195.835 112.947 195.92 112.947 195.997 112.947H196.004Z" fill="black"/>
<path d="M196.124 177.28C195.815 176.823 195.576 176.348 195.352 175.855C195.576 176.348 195.822 176.817 196.124 177.28Z" fill="black"/>
<path d="M197.745 179.15C197.317 178.773 196.938 178.364 196.594 177.938C196.945 178.358 197.331 178.767 197.745 179.15Z" fill="black"/>
<path d="M235.984 189.093C235.591 188.66 235.142 188.228 234.65 187.819C235.142 188.215 235.577 188.642 235.984 189.093Z" fill="black"/>
<path d="M159.549 113.947C159.907 114.014 160.272 114.087 160.665 114.154C160.7 114.154 160.735 114.178 160.763 114.196C160.735 114.166 160.707 114.142 160.658 114.142C160.279 114.081 159.907 114.02 159.549 113.953V113.947Z" fill="white"/>
<path d="M141.053 90.5712C141.319 90.7845 141.572 91.022 141.811 91.2901C141.579 91.0099 141.334 90.7723 141.053 90.5712Z" fill="white"/>
<path d="M121.727 90.0595C122.204 91.4729 122.667 92.8801 123.131 94.2935C122.681 92.8862 122.218 91.4789 121.741 90.0656H121.727V90.0595Z" fill="white"/>
<path d="M66.3598 203.366C67.1601 193.15 71.0983 182.726 77.8164 172.12C81.186 169.251 84.2327 166.186 87.9533 163.542C99.8031 155.154 114.664 154.112 127.069 161.069C131.786 163.713 135.977 167.015 139.087 170.548C148.073 180.746 151.877 191.804 152.088 203.366H158.94C158.722 189.202 153.948 175.873 141.467 164.121C135.949 158.918 128.908 154.758 119.319 152.826C105.581 150.048 90.7192 153.752 80.0488 162.549C77.0021 165.072 74.4187 167.849 70.7403 171.34C64.2046 182.111 60.1822 192.821 59.3047 203.366H66.3528H66.3598Z" fill="black"/>
<path d="M152.088 203.366H211.014L212.46 199.528H152.144L152.088 203.366Z" fill="black"/>
<path d="M66.3601 203.366H0L1.64268 199.979L66.0652 199.528L66.3601 203.366Z" fill="black"/>
</svg>
