<svg width="351" height="302" viewBox="0 0 351 302" fill="none" xmlns="http://www.w3.org/2000/svg">
<path d="M318.013 266.249H1.69922V28.0352L318.013 25.1464V266.249Z" fill="white"/>
<path d="M319.719 267.663H0V26.6395L319.719 23.7202V267.663ZM3.4047 264.835H316.314V26.5786L3.4047 29.437V264.835Z" fill="black"/>
<path d="M212.432 26.2921H108.803V1.58461L212.432 0.883728V26.2921Z" fill="white"/>
<path d="M213.43 27.121H107.807V0.761836L213.43 0.0487671V27.121ZM109.8 25.4633H211.436V1.71869L109.8 2.40738V25.4633Z" fill="black"/>
<path d="M349.301 266.249H317.143V25.1463L349.301 33.63V266.249Z" fill="black"/>
<path d="M351 267.663H315.443V23.2144L351 32.594V267.657V267.663ZM318.848 264.835H347.595V34.6661L318.848 27.0844V264.835Z" fill="black"/>
<path d="M221.481 26.2921H212.938V1.22501L221.481 3.4922V26.2921Z" fill="black"/>
<path d="M222.562 27.188H211.863V0L222.562 2.83399V27.1819V27.188ZM214.018 25.3962H220.407V4.14433L214.018 2.45003V25.3962Z" fill="black"/>
<path d="M348.43 278.188H2.56836V300.982H348.43V278.188Z" fill="white"/>
<path d="M349.652 302H1.34766V277.177H349.652V302ZM3.79062 299.97H347.209V279.206H3.79062V299.97Z" fill="black"/>
<path d="M2.56836 278.188L240.673 278.895L227.349 301.512L2.56836 300.982C2.56836 300.982 3.72666 277.481 2.56836 278.188Z" fill="black"/>
<path d="M147.195 80.7535V114.347C122.14 116.358 101.565 125.915 85.1239 142.151C76.8052 134.813 68.5847 127.597 60.2871 120.283C83.1161 97.5198 111.814 83.9837 147.195 80.7535Z" fill="white"/>
<path d="M85.1949 144.198L83.9313 143.083C79.8526 139.487 75.8021 135.922 71.7516 132.357C67.5396 128.651 63.3276 124.946 59.0945 121.21L58.0977 120.332L59.0243 119.406C82.45 96.051 112.053 82.588 147.013 79.3944L148.831 79.2299V115.584L147.35 115.706C123.292 117.638 102.773 126.829 86.3742 143.028L85.1878 144.198H85.1949ZM62.4852 120.228C66.3813 123.66 70.2563 127.073 74.1384 130.486C77.7747 133.685 81.4111 136.885 85.0685 140.109C101.502 124.391 121.832 115.316 145.56 113.116V82.2772C112.72 85.6414 84.7877 98.3974 62.4852 120.228Z" fill="black"/>
<path d="M80.9115 146.722C67.9175 162.147 61.5082 179.791 61.8522 199.507L27.8684 199.769C27.749 171.947 36.7276 146.965 56.1519 124.854C64.3022 132.052 72.4734 139.262 80.9115 146.722Z" fill="white"/>
<path d="M26.2336 201.146V199.775C26.1002 170.868 35.4579 146.1 54.826 124.05L55.9914 122.721L63.3694 129.236C69.5329 134.679 75.7386 140.164 82.1058 145.783L83.0184 146.587L82.2532 147.496C69.4698 162.677 63.1518 180.169 63.4887 199.476L63.5098 200.848L26.2266 201.14L26.2336 201.146ZM56.3213 126.993C38.4624 147.873 29.6804 171.258 29.5119 198.398L60.2034 198.16C60.1753 179.188 66.4301 161.946 78.8134 146.856C72.7692 141.511 66.8513 136.294 60.9826 131.107L56.3213 126.987V126.993Z" fill="black"/>
<path d="M286.212 197.709L245.061 198.044C244.422 192.364 244.099 186.739 243.102 181.211C240.757 168.193 234.903 156.442 225.833 146.088C223.987 143.979 223.966 142.705 226.156 140.615C234.018 133.118 241.67 125.372 249.448 117.632C249.954 117.12 250.255 116.474 250.81 115.663C275.043 139.048 286.465 166.328 286.219 197.715L286.212 197.709Z" fill="white"/>
<path d="M243.572 199.416L243.432 198.166C243.235 196.405 243.067 194.643 242.898 192.894C242.519 188.927 242.161 185.179 241.48 181.406C239.199 168.754 233.491 157.143 224.506 146.88C222.154 144.192 222.267 142.248 224.913 139.713C231.056 133.85 237.198 127.713 243.137 121.782C244.815 120.106 246.493 118.43 248.177 116.748C248.395 116.529 248.599 116.206 248.851 115.791C249.006 115.542 249.174 115.273 249.371 114.981L250.522 113.293L252.045 114.761C276.398 138.262 288.107 165.395 287.847 197.709L287.833 199.05L243.565 199.409L243.572 199.416ZM251.098 118.046C250.978 118.199 250.852 118.345 250.705 118.491C249.013 120.173 247.335 121.849 245.657 123.526C239.704 129.474 233.555 135.617 227.384 141.505C225.748 143.071 225.713 143.638 227.152 145.283C236.454 155.9 242.365 167.919 244.723 181.004C245.425 184.868 245.798 188.841 246.17 192.681C246.296 194.004 246.422 195.332 246.563 196.667L284.576 196.356C284.499 166.005 273.534 140.353 251.098 118.046Z" fill="black"/>
<path d="M240.639 107.21C232.201 113.427 223.974 119.466 215.803 125.464C213.528 127.109 211.225 129.833 208.902 129.974C206.578 130.138 204.205 127.633 201.833 126.353C188.228 118.875 173.451 114.768 157.424 114.341C156.884 114.323 156.371 114.323 155.831 114.28C154.946 114.237 154.069 114.158 153.016 114.054V80.3574C186.024 79.5042 215.086 88.4693 240.632 107.204L240.639 107.21Z" fill="white"/>
<path d="M208.662 131.345C206.571 131.345 204.773 130.083 203.025 128.858C202.295 128.346 201.6 127.859 200.933 127.499C187.441 120.082 172.79 116.114 157.367 115.706C157.171 115.7 157.002 115.694 156.834 115.688C156.448 115.676 156.069 115.67 155.676 115.639C154.798 115.603 153.864 115.511 152.818 115.414L151.365 115.273V79.041L152.952 78.9983C186.086 78.139 215.942 87.287 241.706 106.186L243.096 107.204L241.713 108.228C233.268 114.451 225.047 120.484 216.876 126.481C216.265 126.926 215.647 127.457 214.987 128.017C213.169 129.577 211.288 131.193 209.006 131.333C208.887 131.339 208.768 131.345 208.641 131.345H208.662ZM154.658 112.842C155.093 112.878 155.507 112.909 155.921 112.927C156.307 112.957 156.623 112.964 156.939 112.97C157.122 112.97 157.304 112.982 157.494 112.988C173.513 113.415 188.74 117.535 202.731 125.226C203.559 125.671 204.359 126.238 205.138 126.78C206.409 127.67 207.813 128.682 208.761 128.621C209.807 128.554 211.379 127.207 212.643 126.128C213.317 125.549 214.012 124.952 214.721 124.44C222.436 118.784 230.2 113.079 238.146 107.222C213.457 89.5359 186.121 81.1741 154.651 81.6921V112.842H154.658Z" fill="black"/>
<path d="M254.728 103.919C254.117 104.364 253.479 104.772 252.896 105.217C220.084 129.078 188.256 152.207 157.354 174.726C155.809 175.866 154.342 176.354 152.313 176.293C143.454 175.988 136.217 181.01 134.082 188.671C132.173 195.46 136.308 202.877 143.868 205.949C154.391 210.24 167.968 204.2 168.803 192.029C168.902 190.81 169.54 189.384 170.446 188.47C194.693 164.323 219.579 139.652 245.02 114.408C248.417 111.032 251.794 107.619 255.199 104.224C255.03 104.12 254.883 104.023 254.735 103.919H254.728ZM151.232 196.149C148.445 196.149 146.023 193.955 146.073 191.493C146.094 189.177 148.593 186.983 151.211 186.922C154.026 186.861 156.546 189.012 156.546 191.456C156.525 193.937 154.026 196.149 151.239 196.149H151.232Z" fill="black"/>
<path d="M151 208.679C148.304 208.679 145.623 208.18 143.145 207.168C134.987 203.852 130.396 195.771 132.481 188.36C134.805 179.998 142.801 174.598 152.376 174.934C153.941 174.988 154.987 174.647 156.258 173.715C180.21 156.26 204.289 138.75 229.786 120.216L251.807 104.2C252.13 103.956 252.495 103.7 252.867 103.444C253.127 103.267 253.387 103.084 253.64 102.901L254.693 102.127L255.774 102.877C255.893 102.956 256.005 103.042 256.146 103.121L257.578 103.974L256.448 105.102C255.051 106.497 253.661 107.893 252.271 109.289C250.27 111.294 248.276 113.299 246.269 115.286L238.954 122.544C215.64 145.673 193.612 167.522 171.695 189.347C171.028 190.018 170.509 191.163 170.431 192.12C170.003 198.392 166.332 203.657 160.358 206.558C157.444 207.972 154.215 208.685 151 208.685V208.679ZM151.569 177.646C143.917 177.646 137.578 182.137 135.675 188.982C133.927 195.192 137.76 201.957 144.584 204.724C149.02 206.534 154.3 206.339 158.701 204.2C163.706 201.768 166.795 197.301 167.16 191.944C167.287 190.408 168.073 188.707 169.168 187.598C191.091 165.761 213.12 143.918 236.434 120.783L243.215 114.054L231.941 122.252C206.444 140.792 182.365 158.301 158.42 175.744C156.546 177.128 154.651 177.719 152.236 177.646C152.011 177.64 151.779 177.633 151.555 177.633L151.569 177.646ZM151.232 197.514C149.505 197.514 147.848 196.911 146.549 195.82C145.174 194.656 144.394 193.071 144.429 191.48C144.464 188.47 147.673 185.648 151.162 185.569C152.91 185.532 154.622 186.111 155.97 187.196C157.374 188.336 158.182 189.89 158.182 191.462C158.153 194.692 154.903 197.52 151.232 197.52V197.514ZM151.323 188.287C151.323 188.287 151.274 188.287 151.253 188.287C149.519 188.329 147.729 189.957 147.715 191.511C147.694 192.388 148.129 193.26 148.894 193.906C149.568 194.473 150.403 194.79 151.239 194.79C153.106 194.79 154.889 193.162 154.91 191.444C154.91 190.609 154.468 189.768 153.689 189.14C153.015 188.592 152.158 188.281 151.33 188.281L151.323 188.287Z" fill="black"/>
<path d="M151.21 186.928C154.011 186.867 156.539 189.018 156.532 191.462C156.518 193.937 154.011 196.161 151.239 196.155C148.452 196.155 146.03 193.967 146.065 191.493C146.1 189.195 148.578 186.989 151.21 186.934V186.928Z" fill="white"/>
</svg>
