<svg width="351" height="273" viewBox="0 0 351 273" fill="none" xmlns="http://www.w3.org/2000/svg">
<path d="M4.19792 4.14038H98.0221V185.216H241.423V269.386H3.13086C3.13086 269.386 5.26498 3.06669 4.19792 4.14038Z" fill="white"/>
<path d="M241.423 272.537H3.13098C2.29559 272.537 1.49529 272.2 0.905598 271.604C0.315906 271.007 0 270.2 0 269.365C0.568631 198.571 1.86736 14.4142 1.15832 4.90532C0.891558 3.84566 1.19342 2.70178 1.97968 1.91581C2.60447 1.28422 3.45391 0.961409 4.31739 0.98948H98.0152C99.7421 0.98948 101.146 2.40002 101.146 4.1404V182.066H241.416C243.143 182.066 244.547 183.476 244.547 185.216V269.386C244.547 271.126 243.143 272.537 241.416 272.537H241.423ZM6.29005 266.235H238.292V188.36H98.0222C96.2953 188.36 94.8912 186.95 94.8912 185.209V7.2843H7.50453C7.54665 9.20713 7.57473 12.0212 7.59579 15.6353C7.63791 22.5477 7.64493 32.6881 7.61685 45.769C7.56771 67.7903 7.42731 98.4644 7.19564 136.942C6.85166 194.283 6.40237 252.242 6.29005 266.235Z" fill="black"/>
<path d="M106.587 9.5861L101.16 4.91235L101.946 185.413L106.587 184.816V9.5861Z" fill="black"/>
<path d="M100.29 187.322L99.4756 1.24213L108.258 8.81415V186.29L100.29 187.315V187.322ZM102.852 8.58257L103.617 183.504L104.916 183.336V10.358L102.852 8.57555V8.58257Z" fill="black"/>
<path d="M241.422 184.157L249.944 194.571L250.007 268.144L241.422 270.2C241.422 270.2 242.194 182.514 241.422 184.164V184.157Z" fill="black"/>
<path d="M239.197 273L239.225 270.172C239.506 238.599 239.758 191.139 239.372 185.125L238.839 184.479L240.187 181.602L241.935 181.974C242.686 182.15 243.121 182.557 243.374 183.055L252.142 193.771L252.212 269.884L239.197 273ZM243.9 190.662C243.921 192.578 243.942 194.915 243.949 197.644C243.978 204.795 243.963 214.753 243.907 227.238C243.83 243.968 243.697 260.852 243.648 267.393L247.81 266.396L247.747 195.364L243.9 190.662Z" fill="black"/>
<path d="M245.066 1.9649L242.363 4.63862L239.682 7.29831L118.233 127.749L115.587 130.367L112.919 133.026V1.9649H245.066Z" fill="white"/>
<path d="M111.452 136.577V0.484192H248.647L240.707 8.35096L116.612 131.419L111.452 136.57V136.577ZM114.387 3.44563V129.489L117.195 126.703L241.486 3.43862H114.394L114.387 3.44563Z" fill="black"/>
<path d="M256.417 16.1824V147.047H124.467L129.879 141.686L251.11 21.4596L253.771 18.8L256.417 16.1824Z" fill="white"/>
<path d="M257.885 148.521H120.887L128.848 140.633L250.078 20.4071L257.885 12.6526V148.521ZM128.054 145.567H254.95V19.7124L252.142 22.5124L128.054 145.574V145.567Z" fill="black"/>
<path d="M259.225 15.3408L264.673 18.4426V147.083H259.134L259.225 15.3408Z" fill="black"/>
<path d="M266.147 148.564H257.66L257.758 12.8004L266.154 17.5794V148.564H266.147ZM260.609 145.602H263.206V19.3057L260.7 17.8811L260.609 145.602Z" fill="black"/>
<path d="M248.541 2.09825L255.245 1.70526L121.069 134.282L115.193 134.591L248.541 2.09825Z" fill="black"/>
<path d="M111.41 136.268L247.903 0.65264L259.079 0L121.709 135.735L111.41 136.268ZM249.18 3.55092L118.978 132.914L120.431 132.837L251.413 3.41759L249.18 3.55092Z" fill="black"/>
<path d="M243.276 71.5097C226.28 72.1202 210.513 79.3905 198.923 91.903C187.361 104.443 181.316 120.766 181.92 137.882C182.524 155.006 189.727 170.83 202.194 182.487C214.662 194.115 230.921 200.227 247.916 199.589C260.862 199.125 273.126 194.788 283.347 187.195L330.515 231.308C331.126 231.877 332.032 231.842 332.593 231.252L350.593 211.75C350.832 211.519 350.965 211.203 350.986 210.873L351 210.712C350.979 210.326 350.811 209.954 350.53 209.715L302.4 164.648C306.17 157.258 308.437 149.146 309.097 140.612C310.627 120.942 303.284 102.001 288.984 88.6398C276.517 76.9835 260.293 70.8781 243.262 71.5167L243.276 71.5097ZM287.005 90.7591C300.666 103.524 307.665 121.616 306.205 140.381C305.664 147.307 303.972 153.981 301.312 160.171C300.947 160.964 300.56 161.785 300.167 162.578C299.943 163.055 299.711 163.504 299.486 163.953C299.262 164.402 299.037 164.851 298.756 165.265L299.851 166.283L300.947 167.3L347.504 210.845L331.47 228.192L285.671 185.399L284.576 184.353L283.537 183.364C283.13 183.687 282.75 184.016 282.343 184.283C281.964 184.613 281.585 184.88 281.185 185.181C271.525 192.22 259.991 196.22 247.783 196.69C231.553 197.28 216.094 191.483 204.16 180.332C192.275 169.244 185.402 154.1 184.819 137.777C184.735 135.384 184.784 132.998 184.967 130.654C186.034 116.963 191.615 104.114 201.057 93.903C212.114 81.9239 227.144 75.0115 243.374 74.422C259.605 73.8326 275.12 79.6081 286.998 90.7521L287.005 90.7591Z" fill="black"/>
<path d="M243.374 74.4292C227.144 75.0186 212.114 81.931 201.057 93.9101C191.615 104.121 186.027 116.963 184.967 130.661C184.784 133.005 184.735 135.391 184.819 137.784C185.409 154.107 192.282 169.251 204.16 180.339C216.094 191.49 231.552 197.287 247.783 196.697C259.991 196.227 271.518 192.22 281.185 185.189C281.592 184.894 281.964 184.62 282.343 184.29C282.743 184.017 283.129 183.694 283.536 183.371L284.575 184.36L285.671 185.406L331.47 228.2L347.504 210.852L300.946 167.308L299.851 166.29L298.756 165.272C299.037 164.858 299.262 164.409 299.486 163.96C299.711 163.511 299.935 163.062 300.167 162.585C300.553 161.792 300.946 160.971 301.311 160.178C303.979 153.995 305.671 147.321 306.204 140.388C307.665 121.616 300.666 103.531 287.004 90.7662C275.126 79.6222 259.612 73.8467 243.381 74.4362L243.374 74.4292ZM275.316 103.398C283.838 111.398 288.809 122.247 289.202 133.967C289.286 135.651 289.237 137.37 289.103 139.062C288.338 148.907 284.344 158.121 277.555 165.434C269.601 174.03 258.819 178.971 247.158 179.427C235.526 179.855 224.413 175.687 215.862 167.715C207.312 159.714 202.398 148.872 201.976 137.146C201.92 135.44 201.941 133.714 202.075 132.023C202.847 122.121 206.855 112.991 213.595 105.672C221.549 97.047 232.36 92.1066 243.992 91.6785C255.652 91.2504 266.786 95.4189 275.316 103.391V103.398Z" fill="black"/>
<path d="M244 91.6853C232.367 92.1134 221.556 97.0538 213.603 105.678C206.863 112.998 202.855 122.128 202.082 132.03C201.949 133.721 201.928 135.447 201.984 137.153C202.412 148.879 207.327 159.721 215.87 167.721C224.421 175.693 235.533 179.862 247.166 179.434C258.826 178.978 269.609 174.037 277.563 165.441C284.352 158.128 288.346 148.914 289.111 139.068C289.245 137.377 289.294 135.651 289.209 133.974C288.809 122.247 283.839 111.405 275.324 103.405C266.801 95.4327 255.66 91.2643 244 91.6923V91.6853ZM273.351 105.524C281.312 113.012 285.924 123.145 286.31 134.044C286.717 144.998 282.842 155.455 275.457 163.434C268.009 171.469 257.963 176.107 247.068 176.486C236.228 176.893 225.804 173.006 217.843 165.567C209.882 158.107 205.291 147.974 204.884 137.047C204.813 135.447 204.855 133.861 204.982 132.254C205.698 123.033 209.419 114.486 215.765 107.657C223.157 99.6223 233.238 94.9766 244.126 94.5976C254.993 94.2187 265.362 98.0784 273.351 105.517V105.524Z" fill="black"/>
</svg>
