<svg width="351" height="275" viewBox="0 0 351 275" fill="none" xmlns="http://www.w3.org/2000/svg">
<path d="M332.228 274.201H127.939V8.39709L332.228 0.829346V274.201Z" fill="white"/>
<path d="M333.156 275H127.014V7.63482L127.905 7.60433L333.156 0V275ZM128.874 273.408H331.296V1.66478L128.874 9.16545V273.408Z" fill="black"/>
<path d="M350.073 274.201H333.225V4.52478L350.073 28.8989V274.201Z" fill="black"/>
<path d="M351 275H332.299V1.61597L351 28.6793V274.994V275ZM334.152 273.408H349.14V29.1184L334.152 7.43356V273.402V273.408Z" fill="black"/>
<path d="M269.878 274.201H82.6191V60.8286L269.878 54.7549V274.201Z" fill="white"/>
<path d="M270.804 275H81.6855V60.0663L82.5771 60.0358L270.804 53.9316V275ZM83.5458 273.408H268.944V55.5842L83.5458 61.597V273.402V273.408Z" fill="black"/>
<path d="M286.233 274.201H270.789V57.7185L286.233 77.2873V274.201Z" fill="black"/>
<path d="M287.161 275H269.863V55.1207L287.161 77.0434V275ZM271.717 273.408H285.3V77.5313L271.717 60.3224V273.408Z" fill="black"/>
<path d="M235.604 211.08H38.209V232.307H235.604V211.08Z" fill="white"/>
<path d="M236.447 233.033H37.3672V210.36H236.447V233.033ZM39.052 231.588H234.756V211.811H39.059V231.588H39.052Z" fill="black"/>
<path d="M24.6472 205.671C18.968 210.195 16.0477 216.598 16.6514 223.258C16.9182 226.148 17.8168 228.892 19.312 231.392L0.18954 246.638C0.07722 246.717 0.01404 246.845 0 246.973V247.028C0.01404 247.138 0.0702 247.248 0.16146 247.327L7.31484 253.925C7.53948 254.126 7.8975 254.138 8.1432 253.943L26.8866 239.015C30.9512 241.582 35.8231 243.052 40.9687 243.211C47.722 243.424 54.1804 241.363 59.1365 237.424C64.0926 233.478 66.9568 228.124 67.1954 222.331C67.4341 216.538 65.0333 211.013 60.4352 206.774C55.8301 202.542 49.5612 200.085 42.808 199.877C36.0407 199.664 29.5963 201.725 24.6402 205.671H24.6472ZM42.7799 200.865C49.2313 201.067 55.2053 203.402 59.5998 207.457C63.3555 210.909 65.5738 215.257 65.995 219.891C66.0652 220.684 66.0863 221.489 66.0512 222.3C65.8195 227.825 63.0887 232.947 58.3643 236.698C53.6188 240.473 47.4763 242.43 41.0249 242.235C36.1741 242.076 31.59 240.723 27.7501 238.338C27.5886 238.235 27.4412 238.143 27.2867 238.033C27.1253 237.942 26.9779 237.832 26.8164 237.722L26.4022 238.058L25.967 238.411L7.76412 252.894L1.38996 247.022L19.8947 232.289L20.3299 231.941L20.7652 231.594C20.6528 231.453 20.5616 231.301 20.4773 231.149C20.3861 230.996 20.2948 230.844 20.2106 230.685C20.0561 230.417 19.9017 230.142 19.7543 229.868C18.6943 227.776 18.0203 225.514 17.8097 223.172C17.2271 216.824 20.014 210.702 25.4405 206.384C30.1579 202.616 36.3285 200.658 42.7799 200.859V200.865Z" fill="black"/>
<path d="M25.4411 206.384C20.0147 210.702 17.2277 216.824 17.8104 223.172C18.021 225.514 18.6949 227.776 19.7549 229.868C19.9024 230.136 20.0568 230.417 20.2112 230.685C20.3025 230.844 20.3938 230.996 20.478 231.149C20.5693 231.301 20.6605 231.453 20.7658 231.594L20.3306 231.941L19.8953 232.289L1.39062 247.022L7.76479 252.894L25.9676 238.411L26.4029 238.058L26.8171 237.722C26.9785 237.832 27.133 237.942 27.2874 238.033C27.4418 238.143 27.5893 238.235 27.7507 238.338C31.5907 240.716 36.1747 242.076 41.0255 242.235C47.4769 242.436 53.6194 240.473 58.3649 236.698C63.0894 232.947 65.8202 227.819 66.0518 222.3C66.0869 221.489 66.0659 220.684 65.9957 219.891C65.5745 215.257 63.3562 210.909 59.6005 207.457C55.2059 203.408 49.2319 201.067 42.7805 200.865C36.3292 200.664 30.1656 202.622 25.4411 206.39V206.384ZM42.5278 206.695C47.154 206.842 51.4432 208.512 54.6092 211.433C57.2839 213.909 58.8844 217.001 59.1863 220.349C59.2354 220.922 59.2495 221.507 59.2284 222.081C59.0599 226.051 57.1084 229.715 53.7107 232.423C50.313 235.118 45.8974 236.533 41.2712 236.387C36.638 236.234 32.3488 234.557 29.1898 231.649C26.4941 229.173 24.9076 226.057 24.5987 222.727C24.5496 222.154 24.5285 221.568 24.5636 221.001C24.7251 217.031 26.6977 213.366 30.0814 210.659C33.472 207.964 37.8946 206.549 42.5278 206.695Z" fill="black"/>
<path d="M30.0801 210.665C26.6964 213.373 24.7168 217.044 24.5624 221.007C24.5273 221.575 24.5483 222.16 24.5975 222.733C24.8993 226.063 26.4858 229.179 29.1885 231.655C32.3475 234.563 36.6368 236.234 41.27 236.393C45.8961 236.539 50.3117 235.131 53.7094 232.429C57.1071 229.722 59.0586 226.051 59.2271 222.087C59.2482 221.507 59.2411 220.922 59.185 220.355C58.8761 217.007 57.2826 213.915 54.608 211.439C51.449 208.518 47.1527 206.848 42.5265 206.701C37.8933 206.555 33.4637 207.97 30.0801 210.665ZM42.4774 207.689C46.8087 207.817 50.8101 209.39 53.7515 212.11C56.2717 214.421 57.7529 217.312 58.0337 220.434C58.0829 220.977 58.0969 221.514 58.0758 222.056C57.9144 225.752 56.0892 229.185 52.9232 231.703C49.7571 234.216 45.6153 235.533 41.3051 235.399C36.9737 235.271 32.9793 233.698 30.0239 230.984C27.0896 228.282 25.5522 224.746 25.7136 221.038C25.8681 217.349 27.7003 213.921 30.8663 211.391C34.0394 208.872 38.1671 207.567 42.4844 207.695L42.4774 207.689Z" fill="black"/>
</svg>
