<svg width="351" height="334" viewBox="0 0 351 334" fill="none" xmlns="http://www.w3.org/2000/svg">
<path d="M283.103 309.345L93.7168 294.019V34.1869L283.103 3.52637V309.345Z" fill="white"/>
<path d="M285.959 312.485L90.8594 296.695V31.7142L93.2672 31.3209L285.959 0.126465V312.485ZM96.5737 291.342L280.245 306.212V6.92588L96.5737 36.6592V291.342Z" fill="black"/>
<path d="M348.023 284.809L287.784 308.116V4.76221L348.023 33.5052V284.809Z" fill="black"/>
<path d="M284.801 312.499V0L350.999 31.5878V286.889L284.801 312.499ZM290.761 9.51777V303.726L345.039 282.723V35.423L290.761 9.51777Z" fill="black"/>
<path d="M159.635 208.113C157.606 190.117 148.74 173.975 134.763 162.701C120.758 151.455 103.257 146.384 85.4752 148.442C67.6935 150.5 51.8002 159.456 40.6805 173.652C29.5889 187.855 24.5555 205.619 26.6124 223.615C28.1568 237.319 33.6745 249.984 42.4215 260.218L0.34353 313.946C-0.19701 314.641 -0.0846903 315.597 0.575191 316.152L22.3583 333.656C22.618 333.888 22.962 334.007 23.299 334.007H23.4674C23.8676 333.951 24.2396 333.747 24.4713 333.424L67.4689 278.593C75.4717 281.986 84.1063 283.721 93.0568 283.721C113.668 283.721 132.79 274.358 145.545 258.076C156.665 243.873 161.698 226.144 159.642 208.113H159.635ZM143.166 256.13C130.986 271.688 112.72 280.616 93.0498 280.616C85.7911 280.616 78.7009 279.373 72.0389 277.055C71.1824 276.739 70.2979 276.388 69.4345 276.043C68.922 275.84 68.4306 275.636 67.9462 275.432C67.4618 275.229 66.9775 275.025 66.5141 274.765L65.5454 276.008L64.5766 277.252L23.0392 330.284L3.65697 314.691L44.4783 262.529L45.4822 261.286L46.4229 260.099C46.0508 259.691 45.6788 259.319 45.3629 258.911C44.9908 258.532 44.6749 258.16 44.3309 257.752C36.2088 248.073 31.0982 236.16 29.61 223.236C27.6654 206.054 32.439 189.154 43.0743 175.562C53.6535 162.027 68.8588 153.478 85.8121 151.512C88.2972 151.224 90.7893 151.076 93.2463 151.076C107.595 151.076 121.432 155.944 132.839 165.132C146.219 175.886 154.65 191.269 156.595 208.457C158.539 225.638 153.794 242.594 143.159 256.13H143.166Z" fill="black"/>
<path d="M156.602 208.464C154.657 191.282 146.226 175.892 132.846 165.138C121.439 155.951 107.602 151.083 93.2534 151.083C90.7964 151.083 88.3113 151.23 85.8192 151.518C68.8659 153.492 53.6606 162.041 43.0814 175.569C32.4461 189.161 27.6725 206.054 29.617 223.242C31.1053 236.167 36.2229 248.08 44.338 257.759C44.682 258.167 44.9979 258.539 45.3699 258.918C45.6858 259.326 46.0579 259.698 46.43 260.105L45.4893 261.292L44.4854 262.536L3.66406 314.697L23.0463 330.291L64.5837 277.258L65.5525 276.015L66.5212 274.772C66.9775 275.032 67.4619 275.235 67.9533 275.439C68.4377 275.643 68.9221 275.847 69.4415 276.05C70.298 276.401 71.1825 276.746 72.046 277.062C78.708 279.38 85.7982 280.623 93.0569 280.623C112.727 280.623 130.993 271.695 143.173 256.137C153.808 242.601 158.554 225.652 156.609 208.464H156.602ZM129.041 244.772C121.411 254.479 110.516 260.653 98.3359 262.044C96.5949 262.276 94.7908 262.36 93.0218 262.36C82.7023 262.36 72.7831 258.883 64.6048 252.273C55.0014 244.533 48.9642 233.498 47.5391 221.149C46.1351 208.836 49.5679 196.691 57.1706 186.955C64.8013 177.22 75.6964 171.102 87.8761 169.683C89.6451 169.479 91.4493 169.367 93.2253 169.367C103.601 169.367 113.436 172.872 121.614 179.426C131.246 187.166 137.283 198.236 138.68 210.55C140.084 222.898 136.651 235.064 129.048 244.772H129.041Z" fill="black"/>
<path d="M138.68 210.55C137.276 198.237 131.246 187.166 121.614 179.426C113.436 172.879 103.601 169.367 93.2254 169.367C91.4564 169.367 89.6522 169.487 87.8761 169.683C75.6964 171.102 64.8084 177.22 57.1706 186.956C49.568 196.691 46.1352 208.836 47.5392 221.149C48.9713 233.498 55.0014 244.533 64.6048 252.274C72.7831 258.883 82.7024 262.36 93.0218 262.36C94.7909 262.36 96.595 262.276 98.336 262.044C110.516 260.653 121.404 254.479 129.041 244.772C136.644 235.064 140.077 222.891 138.673 210.55H138.68ZM126.676 242.861C119.529 251.929 109.35 257.668 98.0341 258.975C86.6547 260.309 75.4507 257.064 66.5283 249.878C57.5497 242.636 51.8916 232.346 50.6069 220.812C49.2942 209.335 52.4953 197.949 59.5855 188.88C66.7038 179.812 76.8828 174.101 88.2271 172.767C89.8839 172.563 91.5406 172.479 93.2324 172.479C102.892 172.479 112.102 175.724 119.733 181.898C128.712 189.084 134.37 199.403 135.654 210.936C136.939 222.442 133.766 233.772 126.676 242.868V242.861Z" fill="black"/>
<path d="M114.152 80.778L113.66 76.9639L237.977 60.5483L238.469 64.3625L114.152 80.778Z" fill="black"/>
<path d="M114.102 110.75L113.709 106.915L257.865 91.7287L258.258 95.5569L114.102 110.75Z" fill="black"/>
<path d="M114.067 134.401L113.751 130.565L257.907 118.414L258.216 122.249L114.067 134.401Z" fill="black"/>
<path d="M114.025 158.058L113.786 154.216L257.942 145.105L258.181 148.948L114.025 158.058Z" fill="black"/>
<path d="M113.991 181.716L113.829 177.866L257.985 171.791L258.139 175.64L113.991 181.716Z" fill="black"/>
<path d="M258.024 198.509L113.87 201.48L113.949 205.329L258.103 202.358L258.024 198.509Z" fill="black"/>
<path d="M258.062 225.174H113.906V229.024H258.062V225.174Z" fill="black"/>
</svg>
