<svg width="352" height="281" viewBox="0 0 352 281" fill="none" xmlns="http://www.w3.org/2000/svg">
<path d="M2.94139 1.89968H38.9399V243.862H321.551V278.822H2.19727C2.19727 278.822 3.69253 1.25463 2.94139 1.89968Z" fill="white"/>
<path d="M321.551 280.721H2.19726C1.6146 280.721 1.053 280.52 0.63882 280.161C0.22464 279.802 0 279.322 0 278.816C0.49842 185.722 1.30572 8.95278 0.79326 2.28926C0.64584 1.66855 0.85644 1.01741 1.38996 0.561002C1.8252 0.183706 2.43594 -0.0171121 3.01158 0.00114411H38.947C40.1614 0.00114411 41.1442 0.853102 41.1442 1.89979V241.969H321.558C322.773 241.969 323.755 242.821 323.755 243.868V278.829C323.755 279.875 322.773 280.727 321.558 280.727L321.551 280.721ZM4.40154 276.93H319.354V245.761H38.9399C37.7255 245.761 36.7427 244.909 36.7427 243.862V3.79236H5.23692C5.24394 4.15748 5.25096 4.5652 5.25798 5.02769C5.28606 7.07239 5.30712 10.0664 5.32116 13.8637C5.34924 21.0628 5.35626 31.6331 5.3352 45.2766C5.30712 68.2612 5.20884 100.283 5.04036 140.465C4.78764 202.53 4.4577 265.301 4.40154 276.924V276.93Z" fill="black"/>
<path d="M44.942 5.17968L40.8984 2.26477L41.6987 243.977L44.942 243.618V5.17968Z" fill="black"/>
<path d="M40.5268 245.128V243.983L39.7266 0.0983887L46.1218 4.70505V244.507L40.5339 245.128H40.5268ZM42.0783 4.4312L42.8645 242.827L43.7771 242.724V5.65437L42.0853 4.4312H42.0783Z" fill="black"/>
<path d="M321.552 243.223L327.526 249.491L327.568 278.068L321.545 279.303C321.545 279.303 322.085 242.231 321.545 243.217L321.552 243.223Z" fill="black"/>
<path d="M319.986 281.001L320.014 279.291C320.204 266.341 320.379 246.813 320.133 243.831L319.74 243.418L320.688 241.683L321.923 241.908C322.471 242.018 322.787 242.249 322.969 242.62L329.07 249.022L329.119 279.133L319.986 281.007V281.001ZM323.313 247.166C323.313 247.69 323.327 248.262 323.327 248.882C323.349 251.888 323.334 256.063 323.292 261.303C323.243 267.911 323.159 274.575 323.117 277.618L326.03 277.021L325.988 249.972L323.313 247.166Z" fill="black"/>
<path d="M257.177 241.914H211.322V46.7369L257.177 45.5442V241.914Z" fill="white"/>
<path d="M258.005 242.626H210.494V46.0432L258.005 44.814V242.632V242.626ZM212.151 241.196H256.356V46.2806L212.151 47.4246V241.196Z" fill="black"/>
<path d="M262.843 241.914H257.402V45.3617L262.843 50.1327V241.914Z" fill="black"/>
<path d="M263.279 242.292H256.975V44.4427L263.279 49.9805V242.292ZM257.845 241.543H262.408V50.2847L257.845 46.2745V241.537V241.543Z" fill="black"/>
<path d="M188.93 241.914H149.674V74.8516L188.93 73.8353V241.914Z" fill="white"/>
<path d="M189.757 242.626H148.852V74.1579L189.757 73.099V242.626ZM150.508 241.196H188.107V74.5717L150.508 75.5453V241.196Z" fill="black"/>
<path d="M193.771 241.914H189.117V73.6771L193.771 77.7604V241.914Z" fill="black"/>
<path d="M194.144 242.237H188.746V72.8921L194.144 77.6326V242.237ZM189.49 241.592H193.4V77.8943L189.49 74.4621V241.592Z" fill="black"/>
<path d="M115.036 241.914H81.1152V97.5623L115.036 96.686V241.914Z" fill="white"/>
<path d="M115.857 242.626H80.2871V96.8686L115.857 95.9497V242.632V242.626ZM81.9438 241.196H114.208V97.4163L81.9438 98.25V241.196Z" fill="black"/>
<path d="M119.222 241.914H115.199V96.5461L119.222 100.076V241.914Z" fill="black"/>
<path d="M119.544 242.194H114.883V95.8706L119.544 99.9661V242.194ZM115.522 241.641H118.898V100.191L115.522 97.2277V241.641Z" fill="black"/>
<path d="M350.803 104.877C348.683 75.6914 318.792 53.6378 285.18 56.9787C262.337 59.2486 245.756 69.8128 236.672 88.0082C227.7 105.96 230.396 123.316 243.755 139.095C253.155 150.201 258.883 162.238 258.968 176.113C259.003 178.87 260.21 181.261 262.33 183.3C265.208 186.087 268.915 187.742 272.937 188.917C282.435 191.704 292.186 192.087 302.035 190.876C307.497 190.207 312.776 188.935 317.395 186.172C321.502 183.714 323.699 180.409 323.769 175.924C323.952 162.372 329.196 150.311 338.63 139.564C346.788 130.271 350.845 119.811 351.014 107.804C350.965 107.074 350.894 105.972 350.817 104.871L350.803 104.877ZM334.868 135.791C324.541 148.126 318.336 161.459 318.216 176.782C318.216 179.241 316.51 180.884 314.341 182.216C310.6 184.517 306.282 185.521 301.811 186.105C292.242 187.377 282.793 187.06 273.639 184.073C271.554 183.385 269.568 182.326 267.728 181.188C265.629 179.886 264.436 178.042 264.415 175.687C264.247 161.149 258.539 148.302 248.529 136.765C233.253 119.172 233.288 96.2722 248.859 79.3487C259.698 67.5734 274.032 61.6523 292.867 61.3115C313.225 62.1817 329.954 70.4457 339.705 87.3997C349.301 104.11 347.532 120.663 334.854 135.797L334.868 135.791Z" fill="black"/>
<path d="M334.861 135.791C324.534 148.126 318.329 161.459 318.209 176.782C318.209 179.241 316.503 180.884 314.334 182.216C310.593 184.517 306.275 185.521 301.804 186.105C292.235 187.377 282.786 187.06 273.632 184.073C271.547 183.385 269.561 182.326 267.721 181.188C265.623 179.886 264.429 178.042 264.408 175.687C264.24 161.149 258.532 148.302 248.522 136.765C233.246 119.172 233.281 96.2722 248.852 79.3487C259.691 67.5734 274.025 61.6523 292.86 61.3115C313.218 62.1817 329.947 70.4457 339.698 87.3997C349.294 104.11 347.525 120.663 334.847 135.797L334.861 135.791Z" fill="white"/>
<path d="M318.799 198.361C318.701 195.233 316.482 193.201 312.923 193.201C298.56 193.146 284.162 193.17 269.799 193.17C267.806 193.17 266.107 193.821 265.033 195.227C263.334 197.485 263.432 199.962 264.513 202.304C265.559 204.562 267.876 205.238 270.621 205.207C277.542 205.152 284.429 205.177 291.351 205.177C298.273 205.177 305.293 205.262 312.277 205.122C313.913 205.067 315.738 204.446 317.107 203.625C319.101 202.383 318.834 200.272 318.806 198.355L318.799 198.361ZM269.631 200.278C269.273 198.811 269.175 198.245 269.792 198.02C269.828 197.99 269.856 197.965 269.926 197.965C269.989 197.935 270.059 197.935 270.122 197.935C270.221 197.905 270.354 197.905 270.48 197.88C270.775 197.85 271.133 197.85 271.625 197.85H313.218V198.075C313.253 198.13 313.253 198.215 313.253 198.27C313.288 198.976 313.316 199.566 313.352 200.272H269.638L269.631 200.278Z" fill="black"/>
<path d="M313.345 200.278H269.631C269.273 198.811 269.175 198.245 269.793 198.02C269.828 197.99 269.856 197.965 269.926 197.965C269.989 197.935 270.06 197.935 270.123 197.935C270.221 197.905 270.354 197.905 270.481 197.88C270.776 197.85 271.134 197.85 271.625 197.85H313.218V198.075C313.254 198.13 313.254 198.215 313.254 198.27C313.289 198.976 313.317 199.566 313.352 200.272L313.345 200.278Z" fill="black"/>
<path d="M312.27 206.875C298.329 206.844 284.359 206.844 270.417 206.875C265.847 206.875 263.854 208.822 263.854 213.137C263.889 216.885 266.072 218.832 270.417 218.832C276.553 218.863 282.695 218.863 288.831 218.863H312.27C316.616 218.832 318.799 216.916 318.799 213.137C318.799 208.767 316.876 206.875 312.27 206.875ZM310.965 214.147H269.47V211.749H313.183C313.38 213.347 312.64 214.147 310.965 214.147Z" fill="black"/>
<path d="M310.964 214.147H269.469V211.749H313.182C313.379 213.347 312.639 214.147 310.964 214.147Z" fill="black"/>
<path d="M304.464 220.548C295.647 220.518 286.837 220.518 278.02 220.548C273.611 220.548 271.456 222.496 271.428 226.384C271.393 230.498 273.485 232.476 277.922 232.531C282.393 232.561 286.865 232.531 291.337 232.531H304.556C309.126 232.5 311.316 230.529 311.281 226.384C311.281 222.465 309.027 220.548 304.457 220.548H304.464ZM303.91 227.851H291.112C286.999 227.851 282.885 227.851 278.771 227.881C277.662 227.881 276.876 227.827 276.876 226.53C276.876 225.234 277.76 225.234 278.799 225.234H303.938C305.012 225.234 305.833 225.265 305.833 226.561C305.798 227.887 304.949 227.887 303.91 227.857V227.851Z" fill="black"/>
<path d="M305.833 226.555C305.797 227.881 304.948 227.881 303.909 227.851H291.112C286.998 227.851 282.884 227.851 278.77 227.881C277.661 227.881 276.875 227.827 276.875 226.53C276.875 225.234 277.76 225.234 278.798 225.234H303.937C305.011 225.234 305.833 225.265 305.833 226.561V226.555Z" fill="black"/>
<path d="M313.211 197.856C313.211 197.929 313.225 197.996 313.211 198.069C313.211 197.996 313.211 197.929 313.197 197.856H313.211Z" fill="white"/>
<path d="M304.766 172.456H301.452V130.089H279.69V172.456H276.377V127.235H304.766V172.456Z" fill="black"/>
</svg>
